<svg id="Capa_1" data-name="Capa 1" xmlns="http://www.w3.org/2000/svg" xmlns:xlink="http://www.w3.org/1999/xlink" viewBox="0 0 1080 1080"><defs><style>.cls-1{fill:url(#Degradado_sin_nombre_9);}.cls-2{font-size:186.39px;fill:#024959;}.cls-2,.cls-8{font-family:Gotham-ThinItalic, Gotham;font-weight:200;font-style:italic;}.cls-3{letter-spacing:-0.04em;}.cls-4,.cls-6{letter-spacing:-0.01em;}.cls-5{letter-spacing:0em;}.cls-6,.cls-7{font-family:Gotham-Ultra, Gotham;font-weight:400;font-style:normal;}.cls-8{font-size:50.15px;}.cls-9{letter-spacing:-0.02em;}.cls-10{letter-spacing:-0.02em;}.cls-11{letter-spacing:-0.03em;}.cls-12{letter-spacing:0em;}.cls-13{letter-spacing:-0.01em;}.cls-14{letter-spacing:0em;}.cls-15{letter-spacing:-0.02em;}</style><linearGradient id="Degradado_sin_nombre_9" x1="83" y1="455.44" x2="814.05" y2="455.44" gradientUnits="userSpaceOnUse"><stop offset="0" stop-color="#8c0303"/><stop offset="1" stop-color="#8c0303"/></linearGradient></defs><path class="cls-1" d="M143.86,844.88C149,823,153.35,804,157.8,785c9.64-41.11,19.17-82.25,29.07-123.3,2.51-10.36-.06-18.31-7.49-25.71-46.83-46.68-77.21-102.81-89.47-167.74C69.24,358.76,94.72,261,169.37,177.78c54-60.27,121.38-97.16,201.31-108.46C435.94,60.09,499,70,558.11,100c89.1,45.08,150,115,176.34,212.49,25.51,94.4,12.14,184.05-38.93,267.64-8.21,13.44-11.14,14-24.78,6.81-8.08-4.27-16.63-7.65-24.7-11.94-12.77-6.79-14.74-15.54-6.56-27.62,55.36-81.69,59.16-168.46,19.88-256.54-38.82-87.05-107-140.64-200.73-156.56-88.85-15.1-166.95,10.88-231.71,74.13-48.24,47.12-74.54,105.05-79.76,172.82-6.84,89,24.36,162.52,89.21,221.69,16.46,15,21.87,28.77,13.84,50.3-8.7,23.32-13.82,48-20.4,72.11-.78,2.83-.95,5.84-1.72,10.8,5.14-2.33,8.48-3.68,11.67-5.31,31-15.94,62.22-31.61,93-48,20.52-10.94,41.81-13.44,64.65-11,45.73,4.94,89.19-4.31,130.57-24,2.21-1.06,4.1-2.8,7.19-5-2.61-2.3-4.21-4.26-6.25-5.44-41.17-23.71-77.07-54.52-113.21-85-5.91-5-11.28-10.87-17.8-14.83s-14.11-8.68-20.87-8.16c-39.11,3-69.58-12.92-94.39-41.55q-36.62-42.24-71.84-85.7c-11.33-13.93-15-26.57-11.42-40,3.25,4.14,6.2,8.56,9.78,12.38C234.64,401.68,260,429,285.9,455.79c11.55,11.92,24.29,11.22,33.27-.13,3.13-3.94,3.41-7.4.06-11.53q-36.8-45.51-73.39-91.18c-3.41-4.24-7.46-8.06-10.3-12.64-1.46-2.35-.88-6-1.22-9,3,.53,6.86,0,8.72,1.74,14.67,13.68,29,27.76,43.35,41.75,16.85,16.39,33.63,32.86,50.53,49.2,8.31,8,11.52,7.83,19-.52,10.93-12.2,10.94-12.21.56-25.35Q321,353.2,285.43,308.33c-2.31-2.91-5.7-5.16-7.32-8.37-1.51-3-1.32-6.84-1.88-10.31,3.2.82,7.32.64,9.43,2.62,15.86,14.93,31.28,30.33,46.91,45.5q24.07,23.36,48.32,46.53c3.62,3.45,6.38,9.79,13.33,5.11,8.84-6,12.5-13.94,8.71-21.93a74.07,74.07,0,0,0-10-15c-18.28-22.12-36.81-44-55.18-66.06-8.4-10.08-16.63-20.29-26-31.67,12.83-3.2,22.09.42,29.9,8.27,20.64,20.71,41.24,41.45,61.52,62.51,9.74,10.12,18.74,20.94,28,31.51,22.27,25.37,33.28,54.75,30.07,88.78-.87,9.19,2.06,15.82,8.47,22.2,46,45.81,93.33,89.93,150.37,122,35.72,20.07,73.37,34.78,114,40.83a69.37,69.37,0,0,0,26.27-1.24c20.18-5,30.69-24,24.64-44.06-2.61-8.68-7.55-16.65-11.46-24.93-1.52-3.21-3.1-6.39-4.65-9.59l2.2-1.74c5.72,5.68,11.71,11.1,17.09,17.08,21.07,23.41,29.2,51,24.65,82.13C810.11,667.15,799,680.39,783,689.43c-21.61,12.15-45.06,14.05-69.05,11.4a405.44,405.44,0,0,1-94-22.15c-10-3.63-19-1.08-27.58,4.6A314.31,314.31,0,0,1,477.9,729.77a322.06,322.06,0,0,1-90.34,4.41c-11.19-1-21.31,1.71-31.32,6.77q-98.42,49.72-197.08,98.94C155.27,841.84,150.82,842.65,143.86,844.88Z"/><text class="cls-2" transform="translate(174.08 954.17) scale(1.02 1)"><tspan class="cls-3">F</tspan><tspan x="108.85" y="0">a</tspan><tspan class="cls-4" x="214.35" y="0">s</tspan><tspan class="cls-5" x="303.82" y="0">t</tspan><tspan class="cls-6" x="373.15" y="0">R</tspan><tspan class="cls-7" x="504.56" y="0">e</tspan><tspan class="cls-6" x="616.02" y="0">s</tspan><tspan class="cls-7" x="712.01" y="0">t</tspan></text><text class="cls-8" transform="translate(218.47 1009.97) scale(1.03 1)">ยก<tspan class="cls-9" x="9.73" y="0">V</tspan><tspan x="44.53" y="0">i</tspan><tspan class="cls-10" x="55.57" y="0">v</tspan><tspan x="82.65" y="0">e una </tspan><tspan class="cls-11" x="229.19" y="0">e</tspan><tspan class="cls-12" x="257.07" y="0">xperiencia di</tspan><tspan class="cls-13" x="557.97" y="0">f</tspan><tspan x="573.76" y="0">e</tspan><tspan class="cls-14" x="603.15" y="0">r</tspan><tspan x="619.95" y="0">e</tspan><tspan class="cls-14" x="649.34" y="0">n</tspan><tspan class="cls-15" x="679.43" y="0">t</tspan><tspan x="697.33" y="0">e!</tspan></text></svg>